<svg width="160" height="40" viewBox="0 0 160 40" fill="none" xmlns="http://www.w3.org/2000/svg">
<path d="M57.0363 36.1307L57.0363 39.312L2.70977e-09 39.0848L1.73425e-07 24.7689L19.3151 24.7689C19.3151 16.5883 18.9481 6.43944e-05 38.4029 6.46264e-05C58.627 6.48676e-05 57.2635 14.7704 57.0363 33.4039L30.9041 33.4039C30.9041 21.1331 28.6318 11.5891 38.8574 11.5891C47.038 11.5891 45.6745 19.3152 45.6745 28.1774L36.585 28.1774L36.585 24.7689L42.7204 24.7689C42.7204 17.9518 43.1749 14.5432 37.9484 14.5432C32.722 14.5432 33.8582 22.042 33.8582 30.677L54.0822 30.677C53.8549 18.4062 57.0363 3.18138 38.4029 3.18138C27.6773 3.18138 21.5874 9.77124 22.4963 28.1774L3.18122 28.1774L3.18122 36.1307L57.0363 36.1307Z" fill="#0F083E"/>
<path d="M48.5052 28.1783L51.4593 28.1783C51.4594 17.9527 52.7192 5.68191 39.085 5.68191C22.4968 5.68191 25.2236 22.2702 25.2236 30.9052L4.99957 30.9052L4.99957 33.4048L28.1777 33.4048C28.405 26.3604 24.542 8.91566 39.085 8.63598C48.5381 8.45419 48.9596 15.9076 48.5052 28.1783Z" fill="#0F083E"/>
<path d="M64 9.31779V0.711233H66.9382C67.6366 0.711233 68.2115 0.821889 68.6629 1.0432C69.1143 1.26451 69.4464 1.56369 69.6593 1.94074C69.8808 2.31779 69.9915 2.74402 69.9915 3.21943C69.9915 3.68664 69.885 4.10877 69.6721 4.48582C69.4592 4.86287 69.127 5.16615 68.6756 5.39566C68.2243 5.61697 67.6451 5.72763 66.9382 5.72763H65.0731V9.31779H64ZM65.0731 4.85468H66.9127C67.6281 4.85468 68.1348 4.71123 68.4329 4.42435C68.7395 4.12927 68.8928 3.72763 68.8928 3.21943C68.8928 2.70304 68.7395 2.3014 68.4329 2.01451C68.1348 1.71943 67.6281 1.57189 66.9127 1.57189H65.0731V4.85468Z" fill="#0F083E"/>
<path d="M74.2941 9.46533C73.698 9.46533 73.1614 9.33418 72.6845 9.07189C72.2076 8.8096 71.8286 8.44074 71.5475 7.96533C71.275 7.48173 71.1387 6.91615 71.1387 6.26861C71.1387 5.62107 71.2792 5.05959 71.5603 4.58418C71.8413 4.10058 72.2203 3.72763 72.6973 3.46533C73.1827 3.20304 73.7235 3.07189 74.3197 3.07189C74.9159 3.07189 75.4524 3.20304 75.9293 3.46533C76.4063 3.72763 76.781 4.10058 77.0535 4.58418C77.3346 5.05959 77.4751 5.62107 77.4751 6.26861C77.4751 6.91615 77.3346 7.48173 77.0535 7.96533C76.7725 8.44074 76.3892 8.8096 75.9038 9.07189C75.4269 9.33418 74.8903 9.46533 74.2941 9.46533ZM74.2941 8.58009C74.6604 8.58009 75.001 8.49402 75.3161 8.32189C75.6313 8.14976 75.8868 7.89156 76.0826 7.5473C76.2785 7.20304 76.3765 6.77681 76.3765 6.26861C76.3765 5.76041 76.2785 5.33418 76.0826 4.98992C75.8953 4.64566 75.644 4.38746 75.3289 4.21533C75.0138 4.0432 74.6774 3.95714 74.3197 3.95714C73.9535 3.95714 73.6128 4.0432 73.2977 4.21533C72.9826 4.38746 72.7271 4.64566 72.5312 4.98992C72.3353 5.33418 72.2374 5.76041 72.2374 6.26861C72.2374 6.77681 72.3353 7.20304 72.5312 7.5473C72.7271 7.89156 72.9783 8.14976 73.2849 8.32189C73.6 8.49402 73.9364 8.58009 74.2941 8.58009Z" fill="#0F083E"/>
<path d="M79.4143 9.31779V0.465332H80.4874V9.31779H79.4143Z" fill="#0F083E"/>
<path d="M83.3449 1.86697C83.132 1.86697 82.9532 1.8014 82.8084 1.67025C82.6721 1.53091 82.604 1.35877 82.604 1.15386C82.604 0.957135 82.6721 0.793201 82.8084 0.662053C82.9532 0.530906 83.132 0.465332 83.3449 0.465332C83.5493 0.465332 83.7239 0.530906 83.8687 0.662053C84.0135 0.793201 84.0859 0.957135 84.0859 1.15386C84.0859 1.35877 84.0135 1.53091 83.8687 1.67025C83.7239 1.8014 83.5493 1.86697 83.3449 1.86697ZM82.8084 9.31779V3.21943H83.8815V9.31779H82.8084Z" fill="#0F083E"/>
<path d="M88.3049 9.46533C87.7769 9.46533 87.3383 9.37927 86.9891 9.20714C86.6399 9.035 86.3801 8.8055 86.2098 8.51861C86.0395 8.23173 85.9543 7.92025 85.9543 7.58418C85.9543 6.96123 86.2013 6.48173 86.6953 6.14566C87.1892 5.80959 87.862 5.64156 88.7137 5.64156H90.4255V5.56779C90.4255 5.035 90.2808 4.63336 89.9912 4.36287C89.7016 4.08418 89.3141 3.94484 88.8287 3.94484C88.4114 3.94484 88.0494 4.0473 87.7428 4.25222C87.4447 4.44894 87.2574 4.73992 87.1807 5.12517H86.0821C86.1246 4.68255 86.2779 4.30959 86.542 4.00632C86.8145 3.70304 87.1509 3.47353 87.5512 3.31779C87.9515 3.15386 88.3773 3.07189 88.8287 3.07189C89.7144 3.07189 90.3787 3.3014 90.8216 3.76041C91.273 4.21123 91.4986 4.81369 91.4986 5.56779V9.31779H90.5405L90.4767 8.22353C90.2978 8.56779 90.0338 8.86287 89.6846 9.10877C89.3439 9.34648 88.884 9.46533 88.3049 9.46533ZM88.471 8.59238C88.8798 8.59238 89.229 8.48992 89.5185 8.285C89.8166 8.08009 90.0423 7.81369 90.1956 7.48582C90.3489 7.15796 90.4255 6.81369 90.4255 6.45304V6.44074H88.8031C88.1729 6.44074 87.7258 6.5473 87.4618 6.76041C87.2063 6.96533 87.0785 7.22353 87.0785 7.535C87.0785 7.85468 87.1977 8.11287 87.4362 8.30959C87.6832 8.49812 88.0281 8.59238 88.471 8.59238Z" fill="#0F083E"/>
<path d="M93.5556 9.31779V3.21943H94.5265L94.6032 4.10468C94.8076 3.77681 95.0801 3.52271 95.4208 3.34238C95.7614 3.16205 96.1447 3.07189 96.5705 3.07189C97.073 3.07189 97.5031 3.17025 97.8608 3.36697C98.227 3.56369 98.5081 3.86287 98.7039 4.26451C98.9254 3.89566 99.2277 3.60468 99.611 3.39156C100.003 3.17845 100.424 3.07189 100.876 3.07189C101.634 3.07189 102.238 3.2932 102.69 3.73582C103.141 4.17025 103.367 4.84238 103.367 5.75222V9.31779H102.306V5.86287C102.306 5.23173 102.174 4.75632 101.91 4.43664C101.646 4.11697 101.267 3.95714 100.773 3.95714C100.262 3.95714 99.8367 4.14976 99.496 4.535C99.1638 4.91205 98.9978 5.45304 98.9978 6.15796V9.31779H97.9247V5.86287C97.9247 5.23173 97.7927 4.75632 97.5286 4.43664C97.2646 4.11697 96.8856 3.95714 96.3917 3.95714C95.8892 3.95714 95.4676 4.14976 95.1269 4.535C94.7948 4.91205 94.6287 5.45304 94.6287 6.15796V9.31779H93.5556Z" fill="#0F083E"/>
<path d="M108.816 9.46533C108.296 9.46533 107.832 9.36287 107.423 9.15796C107.023 8.95304 106.716 8.66615 106.503 8.2973L106.401 9.31779H105.43V0.465332H106.503V4.22763C106.708 3.93255 106.997 3.66615 107.372 3.42845C107.755 3.19074 108.241 3.07189 108.829 3.07189C109.459 3.07189 110.008 3.21123 110.476 3.48992C110.945 3.76861 111.307 4.14976 111.562 4.63337C111.826 5.11697 111.958 5.66615 111.958 6.28091C111.958 6.89566 111.826 7.44484 111.562 7.92845C111.307 8.40386 110.941 8.78091 110.464 9.05959C109.995 9.33009 109.446 9.46533 108.816 9.46533ZM108.701 8.56779C109.127 8.56779 109.501 8.47353 109.825 8.285C110.149 8.08828 110.404 7.81779 110.591 7.47353C110.779 7.12927 110.873 6.72763 110.873 6.26861C110.873 5.80959 110.779 5.40795 110.591 5.06369C110.404 4.71943 110.149 4.45304 109.825 4.26451C109.501 4.06779 109.127 3.96943 108.701 3.96943C108.275 3.96943 107.9 4.06779 107.577 4.26451C107.253 4.45304 106.997 4.71943 106.81 5.06369C106.623 5.40795 106.529 5.80959 106.529 6.26861C106.529 6.72763 106.623 7.12927 106.81 7.47353C106.997 7.81779 107.253 8.08828 107.577 8.285C107.9 8.47353 108.275 8.56779 108.701 8.56779Z" fill="#0F083E"/>
<path d="M116.212 9.46533C115.462 9.46533 114.866 9.24812 114.423 8.81369C113.98 8.37107 113.759 7.69484 113.759 6.785V3.21943H114.832V6.67435C114.832 7.94484 115.373 8.58009 116.454 8.58009C117.008 8.58009 117.464 8.39156 117.821 8.01451C118.187 7.62927 118.371 7.08418 118.371 6.37927V3.21943H119.444V9.31779H118.473L118.396 8.22353C118.2 8.60878 117.906 8.91205 117.515 9.13336C117.131 9.35468 116.697 9.46533 116.212 9.46533Z" fill="#0F083E"/>
<path d="M121.657 9.31779V0.465332H122.73V9.31779H121.657Z" fill="#0F083E"/>
<path d="M127.044 9.46533C126.516 9.46533 126.077 9.37927 125.728 9.20714C125.379 9.035 125.119 8.8055 124.949 8.51861C124.779 8.23173 124.693 7.92025 124.693 7.58418C124.693 6.96123 124.94 6.48173 125.434 6.14566C125.928 5.80959 126.601 5.64156 127.453 5.64156H129.165V5.56779C129.165 5.035 129.02 4.63336 128.73 4.36287C128.441 4.08418 128.053 3.94484 127.568 3.94484C127.15 3.94484 126.789 4.0473 126.482 4.25222C126.184 4.44894 125.996 4.73992 125.92 5.12517H124.821C124.864 4.68255 125.017 4.30959 125.281 4.00632C125.554 3.70304 125.89 3.47353 126.29 3.31779C126.691 3.15386 127.116 3.07189 127.568 3.07189C128.454 3.07189 129.118 3.3014 129.561 3.76041C130.012 4.21123 130.238 4.81369 130.238 5.56779V9.31779H129.28L129.216 8.22353C129.037 8.56779 128.773 8.86287 128.424 9.10877C128.083 9.34648 127.623 9.46533 127.044 9.46533ZM127.21 8.59238C127.619 8.59238 127.968 8.48992 128.258 8.285C128.556 8.08009 128.781 7.81369 128.935 7.48582C129.088 7.15796 129.165 6.81369 129.165 6.45304V6.44074H127.542C126.912 6.44074 126.465 6.5473 126.201 6.76041C125.945 6.96533 125.818 7.22353 125.818 7.535C125.818 7.85468 125.937 8.11287 126.175 8.30959C126.422 8.49812 126.767 8.59238 127.21 8.59238Z" fill="#0F083E"/>
<path d="M134.624 9.31779C134.045 9.31779 133.589 9.18255 133.257 8.91205C132.925 8.64156 132.759 8.15386 132.759 7.44894V4.09238H131.66V3.21943H132.759L132.899 1.75632H133.832V3.21943H135.697V4.09238H133.832V7.44894C133.832 7.83418 133.913 8.09648 134.075 8.23582C134.236 8.36697 134.522 8.43254 134.931 8.43254H135.595V9.31779H134.624Z" fill="#0F083E"/>
<path d="M140.22 9.46533C139.624 9.46533 139.087 9.33418 138.61 9.07189C138.133 8.8096 137.754 8.44074 137.473 7.96533C137.201 7.48173 137.065 6.91615 137.065 6.26861C137.065 5.62107 137.205 5.05959 137.486 4.58418C137.767 4.10058 138.146 3.72763 138.623 3.46533C139.109 3.20304 139.649 3.07189 140.246 3.07189C140.842 3.07189 141.378 3.20304 141.855 3.46533C142.332 3.72763 142.707 4.10058 142.979 4.58418C143.26 5.05959 143.401 5.62107 143.401 6.26861C143.401 6.91615 143.26 7.48173 142.979 7.96533C142.698 8.44074 142.315 8.8096 141.83 9.07189C141.353 9.33418 140.816 9.46533 140.22 9.46533ZM140.22 8.58009C140.586 8.58009 140.927 8.49402 141.242 8.32189C141.557 8.14976 141.813 7.89156 142.009 7.5473C142.204 7.20304 142.302 6.77681 142.302 6.26861C142.302 5.76041 142.204 5.33418 142.009 4.98992C141.821 4.64566 141.57 4.38746 141.255 4.21533C140.94 4.0432 140.603 3.95714 140.246 3.95714C139.879 3.95714 139.539 4.0432 139.224 4.21533C138.908 4.38746 138.653 4.64566 138.457 4.98992C138.261 5.33418 138.163 5.76041 138.163 6.26861C138.163 6.77681 138.261 7.20304 138.457 7.5473C138.653 7.89156 138.904 8.14976 139.211 8.32189C139.526 8.49402 139.862 8.58009 140.22 8.58009Z" fill="#0F083E"/>
<path d="M145.34 9.31779V3.21943H146.311L146.401 4.38746C146.596 3.98582 146.895 3.66615 147.295 3.42845C147.695 3.19074 148.189 3.07189 148.777 3.07189V4.15386H148.483C148.108 4.15386 147.763 4.21943 147.448 4.35058C147.133 4.47353 146.882 4.68664 146.694 4.98992C146.507 5.2932 146.413 5.71123 146.413 6.24402V9.31779H145.34Z" fill="#0F083E"/>
<path d="M151.08 1.86697C150.867 1.86697 150.688 1.8014 150.543 1.67025C150.407 1.53091 150.339 1.35877 150.339 1.15386C150.339 0.957135 150.407 0.793201 150.543 0.662053C150.688 0.530906 150.867 0.465332 151.08 0.465332C151.284 0.465332 151.459 0.530906 151.604 0.662053C151.748 0.793201 151.821 0.957135 151.821 1.15386C151.821 1.35877 151.748 1.53091 151.604 1.67025C151.459 1.8014 151.284 1.86697 151.08 1.86697ZM150.543 9.31779V3.21943H151.616V9.31779H150.543Z" fill="#0F083E"/>
<path d="M156.819 9.46533C156.223 9.46533 155.686 9.33418 155.209 9.07189C154.732 8.8096 154.353 8.44074 154.072 7.96533C153.8 7.48173 153.664 6.91615 153.664 6.26861C153.664 5.62107 153.804 5.05959 154.085 4.58418C154.366 4.10058 154.745 3.72763 155.222 3.46533C155.708 3.20304 156.248 3.07189 156.845 3.07189C157.441 3.07189 157.977 3.20304 158.454 3.46533C158.931 3.72763 159.306 4.10058 159.578 4.58418C159.859 5.05959 160 5.62107 160 6.26861C160 6.91615 159.859 7.48173 159.578 7.96533C159.297 8.44074 158.914 8.8096 158.429 9.07189C157.952 9.33418 157.415 9.46533 156.819 9.46533ZM156.819 8.58009C157.185 8.58009 157.526 8.49402 157.841 8.32189C158.156 8.14976 158.412 7.89156 158.608 7.5473C158.803 7.20304 158.901 6.77681 158.901 6.26861C158.901 5.76041 158.803 5.33418 158.608 4.98992C158.42 4.64566 158.169 4.38746 157.854 4.21533C157.539 4.0432 157.202 3.95714 156.845 3.95714C156.478 3.95714 156.138 4.0432 155.823 4.21533C155.507 4.38746 155.252 4.64566 155.056 4.98992C154.86 5.33418 154.762 5.76041 154.762 6.26861C154.762 6.77681 154.86 7.20304 155.056 7.5473C155.252 7.89156 155.503 8.14976 155.81 8.32189C156.125 8.49402 156.461 8.58009 156.819 8.58009Z" fill="#0F083E"/>
<path d="M68.6788 12.8431H74.3077L78.6144 39.2878H74.4588L73.7033 34.0367V34.1122H68.981L68.2254 39.2878H64.3721L68.6788 12.8431ZM73.2122 30.5233L71.361 17.4521H71.2855L69.4721 30.5233H73.2122Z" fill="#0F083E"/>
<path d="M86.4502 39.6656C84.4353 39.6656 82.899 39.0989 81.8412 37.9656C80.7834 36.8071 80.2545 35.1574 80.2545 33.0167V19.1143C80.2545 16.9735 80.7834 15.3365 81.8412 14.2031C82.899 13.0446 84.4353 12.4653 86.4502 12.4653C88.465 12.4653 90.0013 13.0446 91.0591 14.2031C92.1169 15.3365 92.6458 16.9735 92.6458 19.1143V21.381H88.7169V18.8498C88.7169 17.112 87.9991 16.2431 86.5635 16.2431C85.1279 16.2431 84.4101 17.112 84.4101 18.8498V33.3189C84.4101 35.0315 85.1279 35.8878 86.5635 35.8878C87.9991 35.8878 88.7169 35.0315 88.7169 33.3189V28.1433H86.6391V24.3655H92.6458V33.0167C92.6458 35.1574 92.1169 36.8071 91.0591 37.9656C90.0013 39.0989 88.465 39.6656 86.4502 39.6656Z" fill="#0F083E"/>
<path d="M95.3139 12.8431H99.4695V35.51H106.307V39.2878H95.3139V12.8431Z" fill="#0F083E"/>
<path d="M108.3 12.8431H112.456V39.2878H108.3V12.8431Z" fill="#0F083E"/>
<path d="M118.779 12.8431H124.408L128.715 39.2878H124.559L123.804 34.0367V34.1122H119.081L118.326 39.2878H114.472L118.779 12.8431ZM123.313 30.5233L121.461 17.4521H121.386L119.572 30.5233H123.313Z" fill="#0F083E"/>
<path d="M130.731 12.8431H135.944L139.987 28.6722H140.062V12.8431H143.764V39.2878H139.495L134.509 19.9832H134.433V39.2878H130.731V12.8431Z" fill="#0F083E"/>
<path d="M150.064 12.8431H155.693L160 39.2878H155.844L155.089 34.0367V34.1122H150.366L149.611 39.2878H145.757L150.064 12.8431ZM154.598 30.5233L152.746 17.4521H152.671L150.858 30.5233H154.598Z" fill="#0F083E"/>
</svg>
