<?xml version="1.0" encoding="UTF-8" standalone="no"?>
<!-- Created with Inkscape (http://www.inkscape.org/) -->

<svg
  
   viewBox="0 0 400 300"
   version="1.1"
   id="svg1"
   inkscape:version="1.3.2 (091e20e, 2023-11-25)"
   sodipodi:docname="CMA2.svg"
   xmlns:inkscape="http://www.inkscape.org/namespaces/inkscape"
   xmlns:sodipodi="http://sodipodi.sourceforge.net/DTD/sodipodi-0.dtd"
   xmlns="http://www.w3.org/2000/svg"
   xmlns:svg="http://www.w3.org/2000/svg">
  
  <defs
     id="defs1">
    <clipPath
       clipPathUnits="userSpaceOnUse"
       id="clipPath20-1">
      <path
         d="M 0,595.28 H 841.89 V 0 H 0 Z"
         transform="translate(-348.39461,-251.6313)"
         id="path20-4" />
    </clipPath>
    <clipPath
       clipPathUnits="userSpaceOnUse"
       id="clipPath22-6">
      <path
         d="M 0,595.28 H 841.89 V 0 H 0 Z"
         transform="translate(-373.38301,-255.3594)"
         id="path22-0" />
    </clipPath>
    <clipPath
       clipPathUnits="userSpaceOnUse"
       id="clipPath25-3">
      <path
         d="M 0,595.28 H 841.89 V 0 H 0 Z"
         transform="translate(-386.15631,-245.15511)"
         id="path25-2" />
    </clipPath>
    <clipPath
       clipPathUnits="userSpaceOnUse"
       id="clipPath27-2">
      <path
         d="M 0,595.28 H 841.89 V 0 H 0 Z"
         transform="translate(-436.96911,-245.15511)"
         id="path27-1" />
    </clipPath>
  </defs>
  <g
     inkscape:label="Livello 1"
     inkscape:groupmode="layer"
     id="layer1">
    <g
       id="g2"
       transform="matrix(2.0669248,0,0,2.0669248,-947.35915,-777.77949)">
      <path
         id="path19-7"
         d="m 0,0 c -0.637,-0.002 -4.101,-1.132 -4.101,-6.089 0,-5.256 4.04,-5.316 4.212,-5.316 h 9.776 c 4.293,0 8.353,4.408 8.353,9.072 v 9.886 c 0,0.509 -1.022,3.272 -5.544,3.272 -4.46,0 -5.916,-2.844 -5.916,-3.824 v -5.8 C 6.78,0.538 6.242,0 5.579,0 Z M 9.887,-13.808 H 0.111 c -1.84,0 -6.614,1.387 -6.614,7.719 0,6.479 4.766,8.492 6.503,8.492 h 4.377 v 4.598 c 0,2.171 2.44,6.227 8.319,6.227 5.946,0 7.947,-3.897 7.947,-5.675 v -9.886 c 0,-6.006 -5.127,-11.475 -10.756,-11.475"
         style="fill:#0f083e;fill-opacity:1;fill-rule:nonzero;stroke:none"
         transform="matrix(1.1543139,0,0,-1.1543139,474.80734,444.2814)"
         clip-path="url(#clipPath20-1)"
         inkscape:export-filename="solo logo.png"
         inkscape:export-xdpi="96"
         inkscape:export-ydpi="96" />
      <path
         id="path21-7"
         d="m 0,0 h -4.355 l 0.004,-2.403 H 0 c 0.172,0 4.211,-0.06 4.211,-5.316 0,-4.957 -3.463,-6.087 -4.101,-6.089 h -5.578 c -0.663,0 -1.201,-0.538 -1.201,-1.201 v -5.799 c 0,-0.981 -1.456,-3.825 -5.916,-3.825 -4.522,0 -5.545,2.764 -5.545,3.272 v 9.887 c 0,4.663 4.06,9.071 8.354,9.071 h 3.028 V 0 h -3.028 c -5.629,0 -10.756,-5.469 -10.756,-11.474 v -9.887 c 0,-1.777 2.001,-5.675 7.947,-5.675 5.878,0 8.318,4.056 8.318,6.228 v 4.598 H 0.11 c 1.737,0 6.504,2.012 6.504,8.491 C 6.614,-1.387 1.839,0 0,0"
         style="fill:#6bd697;fill-opacity:1;fill-rule:nonzero;stroke:none"
         transform="matrix(1.1543139,0,0,-1.1543139,503.6518,439.97801)"
         clip-path="url(#clipPath22-6)" />
      <path
         style="font-weight:700;font-size:14.536px;font-family:'Times New Roman';fill:#0f083e;stroke-width:1.15431"
         d="m 527.58909,438.59708 v 3.3359 h -0.27681 q -0.31229,-1.30597 -1.16401,-2.00154 -0.85172,-0.69557 -1.93056,-0.69557 -0.90141,0 -1.65376,0.51813 -0.75235,0.51813 -1.10013,1.35565 -0.44716,1.07175 -0.44716,2.38481 0,1.29178 0.3265,2.35642 0.32649,1.05755 1.02206,1.60407 0.69557,0.53943 1.8028,0.53943 0.9085,0 1.66085,-0.39747 0.75945,-0.39747 1.59698,-1.36985 v 0.83043 q -0.80914,0.84462 -1.68925,1.22789 -0.87301,0.37618 -2.04412,0.37618 -1.54019,0 -2.7397,-0.6175 -1.1924,-0.6175 -1.84539,-1.77441 -0.64588,-1.15692 -0.64588,-2.46289 0,-1.37695 0.71686,-2.61194 0.72396,-1.23499 1.94476,-1.91637 1.22789,-0.68137 2.60484,-0.68137 1.01496,0 2.14349,0.44005 0.65298,0.25552 0.83043,0.25552 0.22712,0 0.39037,-0.16325 0.17034,-0.17034 0.22002,-0.53232 z m 4.75293,0.77364 v 3.91791 h 0.19164 q 0.9156,0 1.32726,-0.57491 0.41167,-0.57491 0.52523,-1.69634 h 0.26971 v 5.03934 h -0.26971 q -0.0852,-0.82333 -0.36198,-1.34856 -0.26971,-0.52523 -0.63169,-0.70267 -0.36198,-0.18454 -1.05046,-0.18454 v 2.71131 q 0,0.79494 0.0639,0.97238 0.071,0.17744 0.25552,0.291 0.18454,0.11356 0.5962,0.11356 h 0.57491 q 1.34856,0 2.15769,-0.62459 0.81623,-0.62459 1.17111,-1.90217 h 0.26261 l -0.43295,3.05909 h -8.31846 v -0.26261 h 0.3194 q 0.41876,0 0.67428,-0.14906 0.18454,-0.0994 0.2839,-0.34068 0.0781,-0.17035 0.0781,-0.89431 v -6.33111 q 0,-0.65298 -0.0355,-0.80203 -0.071,-0.24842 -0.26261,-0.38328 -0.26972,-0.19873 -0.73816,-0.19873 h -0.3194 v -0.26261 h 8.05584 v 2.84616 h -0.26971 q -0.20583,-1.04336 -0.582,-1.49761 -0.36908,-0.45425 -1.05046,-0.66718 -0.39747,-0.12776 -1.49051,-0.12776 z m 9.35475,-0.55361 4.74833,5.96913 v -4.13794 q 0,-0.86591 -0.24842,-1.17111 -0.34068,-0.41167 -1.14272,-0.39747 v -0.26261 h 3.17975 v 0.26261 q -0.6104,0.0781 -0.82333,0.20583 -0.20583,0.12066 -0.32649,0.40457 -0.11356,0.27681 -0.11356,0.95818 v 8.01326 h -0.24132 l -6.50855,-8.01326 v 6.11818 q 0,0.83043 0.37617,1.12143 0.38328,0.29101 0.87302,0.29101 h 0.22712 v 0.26261 h -3.41397 v -0.26261 q 0.79493,-0.007 1.10723,-0.3265 0.3123,-0.31939 0.3123,-1.08594 v -6.79246 l -0.20583,-0.25551 q -0.3052,-0.38327 -0.53943,-0.50393 -0.23422,-0.12067 -0.67427,-0.13486 v -0.26261 z m 16.0453,0 v 2.60484 h -0.25551 q -0.22713,-0.90141 -0.50394,-1.29178 -0.27681,-0.39747 -0.75945,-0.63169 -0.26971,-0.12776 -0.94399,-0.12776 h -0.71686 v 7.42415 q 0,0.73816 0.0781,0.9227 0.0852,0.18454 0.31939,0.32649 0.24132,0.13486 0.65298,0.13486 h 0.3194 v 0.26261 h -5.03934 v -0.26261 h 0.3194 q 0.41876,0 0.67427,-0.14906 0.18454,-0.0994 0.29101,-0.34068 0.0781,-0.17035 0.0781,-0.89431 v -7.42415 h -0.69557 q -0.97238,0 -1.41243,0.41167 -0.6175,0.57491 -0.78074,1.63956 h -0.26971 v -2.60484 z"
         id="text22-0"
         aria-label="CENT" />
      <path
         style="font-weight:700;font-size:13.771px;font-family:'Cinzel Decorative';fill:#0f083e;stroke-width:1.15431"
         d="m 573.214,450.7826 q -1.07414,0.53707 -2.28599,0.53707 -1.07414,0 -1.95548,-0.33051 -1.9004,-0.70232 -3.23619,-2.74043 -0.34427,-0.49575 -1.2807,-1.90039 -0.93643,-1.40465 -1.21185,-1.79023 -0.48198,-0.75741 -0.77117,-0.82626 v -0.13771 q 0.0138,0 0.0275,0 0.0275,0 0.0551,0 0.0275,0 0.0551,0 0.0275,0 0.0688,0 0.0413,0 0.0689,0 0.70232,0 1.29447,-0.31674 0.89511,-0.49575 0.89511,-1.83154 0,-0.97774 -0.55084,-1.50104 -0.55084,-0.53707 -1.32201,-0.53707 h -1.0466 v 8.0285 q 0,0.35804 0.26165,0.61969 0.26165,0.24788 0.6197,0.24788 h 0.17902 v 0.13771 h -4.18638 v -0.13771 h 0.17902 q 0.34427,0 0.60592,-0.24788 0.26165,-0.24788 0.27542,-0.60592 v -7.64291 q -0.0138,-0.35804 -0.27542,-0.60592 -0.24788,-0.26165 -0.60592,-0.26165 h -0.17902 v -0.13771 h 4.72345 q 1.77646,0 2.7542,0.81249 0.77117,0.63346 0.77117,1.79023 0,1.15676 -0.7574,1.88662 -0.74363,0.7161 -1.7076,0.7161 -0.0826,0 -0.17903,-0.0138 0.56461,0.30296 0.93643,0.67477 0.38559,0.37182 0.66101,0.70233 0.28919,0.3305 0.48198,0.59215 0.20657,0.24788 0.53707,0.67478 0.33051,0.41313 0.68855,0.86757 0.35805,0.45444 0.78495,0.93643 0.44067,0.46821 0.96397,0.89511 0.53707,0.4269 1.08791,0.70232 1.17053,0.59216 2.57518,0.60593 z"
         id="text23-5"
         aria-label="R" />
      <path
         style="font-weight:700;font-size:14.536px;font-family:'Times New Roman';fill:#0f083e;stroke-width:1.15431"
         d="m 573.95311,438.68225 q 2.29964,-0.0852 3.73337,1.34146 1.44082,1.42663 1.44082,3.57012 0,1.83119 -1.07174,3.22234 -1.41953,1.84539 -4.01018,1.84539 -2.59774,0 -4.01727,-1.76022 -1.12143,-1.39114 -1.12143,-3.30041 0,-2.1435 1.45502,-3.57012 1.46212,-1.43373 3.59141,-1.34856 z m 0.0852,0.45425 q -1.32017,0 -2.00864,1.34856 -0.56072,1.10723 -0.56072,3.17975 0,2.46288 0.86592,3.64109 0.6033,0.82333 1.68924,0.82333 0.73106,0 1.2208,-0.35488 0.62459,-0.45425 0.97238,-1.44792 0.34778,-1.00077 0.34778,-2.60484 0,-1.90927 -0.35488,-2.85326 -0.35488,-0.95109 -0.9085,-1.34146 -0.54652,-0.39037 -1.26338,-0.39037 z m 16.17082,6.02591 2.61194,-6.3453 h 3.91791 v 0.26261 h -0.3123 q -0.42586,0 -0.68138,0.14905 -0.17744,0.0994 -0.2839,0.33359 -0.0781,0.17034 -0.0781,0.88721 v 6.3453 q 0,0.73816 0.0781,0.9227 0.0781,0.18454 0.31939,0.32649 0.24132,0.13486 0.64589,0.13486 h 0.3123 v 0.26261 h -5.02514 v -0.26261 h 0.31229 q 0.42586,0 0.68138,-0.14906 0.17744,-0.0994 0.2839,-0.34068 0.0781,-0.17035 0.0781,-0.89431 v -7.13314 l -3.69078,8.7798 h -0.17035 l -3.74756,-8.71592 v 6.77826 q 0,0.70976 0.0355,0.87301 0.0923,0.35488 0.39747,0.58201 0.31229,0.22003 0.97238,0.22003 v 0.26261 h -3.29332 v -0.26261 h 0.0994 q 0.31939,0.007 0.5962,-0.0994 0.27681,-0.11356 0.41877,-0.2981 0.14195,-0.18454 0.22002,-0.51813 0.0142,-0.0781 0.0142,-0.72396 v -6.08979 q 0,-0.73106 -0.0781,-0.9085 -0.0781,-0.18454 -0.31939,-0.3194 -0.24132,-0.14195 -0.64589,-0.14195 h -0.3052 v -0.26261 h 3.9321 z m 10.75511,-5.79169 v 3.91791 h 0.19163 q 0.9156,0 1.32726,-0.57491 0.41167,-0.57491 0.52523,-1.69634 h 0.26971 v 5.03934 h -0.26971 q -0.0852,-0.82333 -0.36198,-1.34856 -0.26971,-0.52523 -0.63169,-0.70267 -0.36198,-0.18454 -1.05045,-0.18454 v 2.71131 q 0,0.79494 0.0639,0.97238 0.071,0.17744 0.25552,0.291 0.18454,0.11356 0.5962,0.11356 h 0.57491 q 1.34856,0 2.15769,-0.62459 0.81623,-0.62459 1.17111,-1.90217 h 0.26262 l -0.43296,3.05909 h -8.31845 v -0.26261 h 0.31939 q 0.41876,0 0.67428,-0.14906 0.18454,-0.0994 0.28391,-0.34068 0.0781,-0.17035 0.0781,-0.89431 v -6.33111 q 0,-0.65298 -0.0355,-0.80203 -0.071,-0.24842 -0.26261,-0.38328 -0.26971,-0.19873 -0.73816,-0.19873 h -0.31939 v -0.26261 h 8.05584 v 2.84616 h -0.26971 q -0.20584,-1.04336 -0.58201,-1.49761 -0.36908,-0.45425 -1.05045,-0.66718 -0.39747,-0.12776 -1.49051,-0.12776 z m 5.92664,9.07081 v -0.26261 h 0.31939 q 0.41876,0 0.63879,-0.12776 0.22712,-0.13486 0.33359,-0.36198 0.0639,-0.14905 0.0639,-0.89431 v -6.33111 q 0,-0.73815 -0.0781,-0.92269 -0.0781,-0.18454 -0.31939,-0.3194 -0.23422,-0.14195 -0.63879,-0.14195 h -0.31939 v -0.26261 h 4.30827 q 1.72473,0 2.77519,0.46844 1.28467,0.57491 1.94475,1.73893 0.66718,1.16401 0.66718,2.63323 0,1.01496 -0.32649,1.87378 -0.32649,0.85172 -0.84462,1.41243 -0.51813,0.55362 -1.1995,0.89431 -0.67428,0.33359 -1.65376,0.51813 -0.43295,0.0852 -1.36275,0.0852 z m 3.66948,-9.0779 v 7.50932 q 0,0.5962 0.0568,0.73105 0.0568,0.13486 0.19163,0.20584 0.19164,0.10646 0.55362,0.10646 1.18531,0 1.8099,-0.80913 0.85172,-1.09304 0.85172,-3.39268 0,-1.85249 -0.58201,-2.95972 -0.46135,-0.86592 -1.18531,-1.17821 -0.51103,-0.22003 -1.69634,-0.21293 z m 11.95706,8.81529 v 0.26261 h -5.03224 v -0.26261 h 0.31939 q 0.41876,0 0.67428,-0.14906 0.18454,-0.0994 0.2839,-0.34068 0.0781,-0.17035 0.0781,-0.89431 v -6.33111 q 0,-0.73815 -0.0781,-0.92269 -0.0781,-0.18454 -0.31939,-0.3194 -0.23422,-0.14195 -0.63879,-0.14195 h -0.31939 v -0.26261 h 5.03224 v 0.26261 h -0.3194 q -0.41876,0 -0.67428,0.14905 -0.18454,0.0994 -0.291,0.34069 -0.0781,0.17034 -0.0781,0.8943 v 6.33111 q 0,0.73816 0.0781,0.9227 0.0852,0.18454 0.31939,0.32649 0.24132,0.13486 0.64589,0.13486 z m 10.03373,-9.58184 v 3.3359 h -0.27681 q -0.3123,-1.30597 -1.16402,-2.00154 -0.85171,-0.69557 -1.93056,-0.69557 -0.9014,0 -1.65375,0.51813 -0.75235,0.51813 -1.10014,1.35565 -0.44715,1.07175 -0.44715,2.38481 0,1.29178 0.32649,2.35642 0.32649,1.05755 1.02206,1.60407 0.69557,0.53943 1.80281,0.53943 0.9085,0 1.66085,-0.39747 0.75945,-0.39747 1.59697,-1.36985 v 0.83043 q -0.80913,0.84462 -1.68924,1.22789 -0.87301,0.37618 -2.04412,0.37618 -1.5402,0 -2.7397,-0.6175 -1.19241,-0.6175 -1.84539,-1.77441 -0.64589,-1.15692 -0.64589,-2.46289 0,-1.37695 0.71687,-2.61194 0.72396,-1.23499 1.94475,-1.91637 1.2279,-0.68137 2.60484,-0.68137 1.01497,0 2.1435,0.44005 0.65298,0.25552 0.83042,0.25552 0.22713,0 0.39037,-0.16325 0.17035,-0.17034 0.22003,-0.53232 z m 6.40668,0.0852 q 2.29964,-0.0852 3.73337,1.34146 1.44082,1.42663 1.44082,3.57012 0,1.83119 -1.07174,3.22234 -1.41953,1.84539 -4.01018,1.84539 -2.59774,0 -4.01727,-1.76022 -1.12143,-1.39114 -1.12143,-3.30041 0,-2.1435 1.45502,-3.57012 1.46212,-1.43373 3.59141,-1.34856 z m 0.0852,0.45425 q -1.32016,0 -2.00863,1.34856 -0.56072,1.10723 -0.56072,3.17975 0,2.46288 0.86592,3.64109 0.6033,0.82333 1.68924,0.82333 0.73106,0 1.2208,-0.35488 0.62459,-0.45425 0.97238,-1.44792 0.34778,-1.00077 0.34778,-2.60484 0,-1.90927 -0.35488,-2.85326 -0.35489,-0.95109 -0.9085,-1.34146 -0.54652,-0.39037 -1.26339,-0.39037 z"
         id="text24-2"
         aria-label="O MEDICO" />
      <path
         id="path24-7"
         d="M 0,0 H 39.987"
         style="fill:none;stroke:#0f083e;stroke-width:0.249;stroke-linecap:butt;stroke-linejoin:miter;stroke-miterlimit:10;stroke-dasharray:none;stroke-opacity:1"
         transform="matrix(1.1543139,0,0,-1.1543139,518.3962,451.75697)"
         clip-path="url(#clipPath25-3)" />
      <path
         id="path26-6"
         d="M 0,0 H 58.214"
         style="fill:none;stroke:#0f083e;stroke-width:0.249;stroke-linecap:butt;stroke-linejoin:miter;stroke-miterlimit:10;stroke-dasharray:none;stroke-opacity:1"
         transform="matrix(1.1543139,0,0,-1.1543139,577.05013,451.75697)"
         clip-path="url(#clipPath27-2)" />
      <path
         style="font-weight:700;font-size:11.4758px;font-family:'Times New Roman';fill:#6bd697;stroke-width:1.15431"
         d="m 559.12873,460.5598 h -2.68404 l -0.3194,0.73965 q -0.15689,0.36982 -0.15689,0.61077 0,0.3194 0.25776,0.47069 0.15129,0.0897 0.74525,0.13448 v 0.20733 h -2.52714 v -0.20733 q 0.40905,-0.0616 0.67241,-0.3362 0.26336,-0.28018 0.65,-1.1487 l 2.71765,-6.0629 h 0.10647 l 2.74007,6.231 q 0.39224,0.88534 0.64439,1.11508 0.19052,0.1737 0.53793,0.20172 v 0.20733 h -3.67584 v -0.20733 h 0.15129 q 0.44267,0 0.62198,-0.12327 0.12328,-0.0897 0.12328,-0.25776 0,-0.10086 -0.0336,-0.20733 -0.0112,-0.0504 -0.1681,-0.42025 z m -0.19052,-0.41465 -1.13189,-2.6168 -1.16551,2.6168 z m 11.61949,-5.19437 v 2.67843 h -0.20732 q -0.37543,-1.09827 -1.12629,-1.66982 -0.75086,-0.57155 -1.6418,-0.57155 -0.85172,0 -1.41766,0.4819 -0.56595,0.47629 -0.80129,1.33361 -0.23535,0.85732 -0.23535,1.75947 0,1.09267 0.25776,1.91637 0.25776,0.82371 0.82931,1.21034 0.57715,0.38664 1.36723,0.38664 0.27457,0 0.56034,-0.056 0.29138,-0.0616 0.59396,-0.1737 v -1.58017 q 0,-0.44827 -0.0616,-0.57715 -0.0616,-0.13448 -0.25776,-0.24095 -0.19052,-0.10646 -0.46508,-0.10646 H 567.756 v -0.20733 h 3.69265 v 0.20733 q -0.42026,0.028 -0.58836,0.11767 -0.1625,0.084 -0.25215,0.28578 -0.0504,0.10646 -0.0504,0.52111 v 1.58017 q -0.72844,0.325 -1.51852,0.48749 -0.78448,0.16811 -1.6306,0.16811 -1.08146,0 -1.79869,-0.29138 -0.71164,-0.29698 -1.26077,-0.77327 -0.54353,-0.4819 -0.85172,-1.08146 -0.39224,-0.77327 -0.39224,-1.73146 0,-1.71464 1.20473,-2.89697 1.20474,-1.18232 3.03145,-1.18232 0.56595,0 1.01983,0.0897 0.24655,0.0448 0.79568,0.25776 0.55474,0.20732 0.6556,0.20732 0.1569,0 0.29138,-0.11207 0.13448,-0.11767 0.24655,-0.43706 z m 8.2557,5.10471 -0.28578,2.66723 h -6.74651 v -0.20733 h 0.25215 q 0.3306,0 0.53232,-0.11767 0.14569,-0.0784 0.22414,-0.26896 0.0616,-0.13449 0.0616,-0.70604 v -4.99824 q 0,-0.58276 -0.0616,-0.72845 -0.0616,-0.14569 -0.25215,-0.25215 -0.18492,-0.11207 -0.50431,-0.11207 h -0.25215 v -0.20733 h 4.05127 v 0.20733 h -0.3306 q -0.33061,0 -0.53233,0.11767 -0.14569,0.0785 -0.22974,0.26897 -0.0616,0.13448 -0.0616,0.70603 v 4.84135 q 0,0.58275 0.0672,0.74525 0.0672,0.1569 0.26336,0.23535 0.14009,0.0504 0.67802,0.0504 h 0.63318 q 0.60517,0 1.00862,-0.21293 0.40345,-0.21293 0.69482,-0.67241 0.29698,-0.45948 0.56035,-1.35603 z m 4.61164,2.4599 v 0.20733 h -3.97283 v -0.20733 h 0.25216 q 0.3306,0 0.53232,-0.11767 0.14569,-0.0784 0.22414,-0.26896 0.0616,-0.13449 0.0616,-0.70604 v -4.99824 q 0,-0.58276 -0.0616,-0.72845 -0.0616,-0.14569 -0.25216,-0.25215 -0.18491,-0.11207 -0.5043,-0.11207 h -0.25216 v -0.20733 h 3.97283 v 0.20733 h -0.25216 q -0.3306,0 -0.53232,0.11767 -0.14569,0.0785 -0.22974,0.26897 -0.0616,0.13448 -0.0616,0.70603 v 4.99824 q 0,0.58276 0.0616,0.72845 0.0672,0.14569 0.25215,0.25776 0.19052,0.10646 0.50991,0.10646 z m 5.03566,-1.95559 h -2.68404 l -0.3194,0.73965 q -0.15689,0.36982 -0.15689,0.61077 0,0.3194 0.25776,0.47069 0.15129,0.0897 0.74525,0.13448 v 0.20733 h -2.52714 v -0.20733 q 0.40905,-0.0616 0.67241,-0.3362 0.26336,-0.28018 0.65,-1.1487 l 2.71765,-6.0629 h 0.10647 l 2.74007,6.231 q 0.39224,0.88534 0.64439,1.11508 0.19052,0.1737 0.53793,0.20172 v 0.20733 h -3.67584 v -0.20733 h 0.15129 q 0.44267,0 0.62198,-0.12327 0.12328,-0.0897 0.12328,-0.25776 0,-0.10086 -0.0336,-0.20733 -0.0112,-0.0504 -0.16811,-0.42025 z m -0.19052,-0.41465 -1.13189,-2.6168 -1.16551,2.6168 z m 6.55961,-5.02067 3.74869,4.71248 v -3.2668 q 0,-0.68361 -0.19612,-0.92456 -0.26897,-0.325 -0.90215,-0.31379 v -0.20733 h 2.51033 v 0.20733 q -0.4819,0.0616 -0.65,0.1625 -0.1625,0.0953 -0.25776,0.31939 -0.0897,0.21854 -0.0897,0.75646 v 6.32626 h -0.19052 l -5.13833,-6.32626 v 4.83015 q 0,0.6556 0.29698,0.88534 0.30258,0.22974 0.68922,0.22974 h 0.17931 v 0.20733 h -2.69524 v -0.20733 q 0.62758,-0.006 0.87413,-0.25776 0.24655,-0.25215 0.24655,-0.85732 v -5.36247 l -0.1625,-0.20172 q -0.24095,-0.30259 -0.42586,-0.39785 -0.18491,-0.0952 -0.53232,-0.10646 v -0.20733 z m 10.20183,5.43532 h -2.68404 l -0.31939,0.73965 q -0.1569,0.36982 -0.1569,0.61077 0,0.3194 0.25776,0.47069 0.15129,0.0897 0.74525,0.13448 v 0.20733 h -2.52714 v -0.20733 q 0.40905,-0.0616 0.67241,-0.3362 0.26336,-0.28018 0.65,-1.1487 l 2.71766,-6.0629 h 0.10646 l 2.74007,6.231 q 0.39224,0.88534 0.6444,1.11508 0.19051,0.1737 0.53792,0.20172 v 0.20733 h -3.67584 v -0.20733 h 0.15129 q 0.44267,0 0.62198,-0.12327 0.12328,-0.0897 0.12328,-0.25776 0,-0.10086 -0.0336,-0.20733 -0.0112,-0.0504 -0.1681,-0.42025 z m -0.19052,-0.41465 -1.13189,-2.6168 -1.16551,2.6168 z"
         id="text27-8"
         aria-label="AGLIANA" />
    </g>
  </g>
</svg>
